<svg width="40" height="40" viewBox="0 0 40 40" fill="none" xmlns="http://www.w3.org/2000/svg">
<g clip-path="url(#clip0_117_1556)">
<path d="M19.8889 19.2222C22.8889 19.2222 25.2222 16.7778 25.2222 13.7778C25.2222 10.7778 22.7778 8.44446 19.7778 8.44446C16.7778 8.44446 14.4445 10.8889 14.4445 13.7778C14.4445 16.7778 16.8889 19.2222 19.8889 19.2222ZM19.7778 10.6667C19.8889 10.6667 19.8889 10.6667 19.7778 10.6667C21.5556 10.6667 23 12.1111 23 13.8889C23 15.6667 21.5556 17 19.7778 17C18 17 16.6667 15.5556 16.6667 13.8889C16.6667 12.1111 18.1111 10.6667 19.7778 10.6667Z" fill="#552677"/>
<path d="M36.3333 18.5555C34.2222 16.6667 31.4444 15.6667 28.5555 15.7778H27.6666C27.4444 16.6667 27.1111 17.4444 26.6666 18.1111C27.3333 18 27.8888 18 28.5555 18C30.6666 17.8889 32.7777 18.5555 34.4444 19.7778V27.7778H36.6666V18.8889L36.3333 18.5555Z" fill="#552677"/>
<path d="M26 8.66666C26.5556 7.33333 28.1111 6.66666 29.5556 7.22222C30.8889 7.77777 31.5556 9.33333 31 10.7778C30.5556 11.7778 29.5556 12.4444 28.5556 12.4444C28.3333 12.4444 28 12.4444 27.7778 12.3333C27.8889 12.8889 27.8889 13.4444 27.8889 13.8889V14.5555C28.1111 14.5555 28.3333 14.6667 28.5556 14.6667C31.3333 14.6667 33.5556 12.4444 33.5556 9.77777C33.5556 6.99999 31.3333 4.77777 28.6667 4.77777C26.8889 4.77777 25.3333 5.66666 24.4445 7.22222C25 7.55555 25.5556 7.99999 26 8.66666Z" fill="#552677"/>
<path d="M13.3334 18.2222C12.8889 17.5555 12.5556 16.7778 12.3334 15.8889H11.4445C8.5556 15.7778 5.77782 16.7778 3.66671 18.5555L3.33337 18.8889V27.7778H5.5556V19.7778C7.33337 18.5555 9.33337 17.8889 11.4445 18C12.1112 18 12.7778 18.1111 13.3334 18.2222Z" fill="#552677"/>
<path d="M11.4444 14.5555C11.6666 14.5555 11.8889 14.5555 12.1111 14.4444V13.7778C12.1111 13.2222 12.1111 12.6666 12.2222 12.2222C12 12.3333 11.6666 12.3333 11.4444 12.3333C9.99997 12.3333 8.77775 11.1111 8.77775 9.66665C8.77775 8.2222 9.99997 6.99998 11.4444 6.99998C12.5555 6.99998 13.5555 7.66665 14 8.66665C14.4444 8.11109 15.1111 7.55554 15.6666 7.11109C14.2222 4.77776 11.2222 3.99998 8.88886 5.44443C6.55553 6.88887 5.77775 9.88887 7.2222 12.2222C8.11109 13.6666 9.66664 14.5555 11.4444 14.5555Z" fill="#552677"/>
<path d="M29 25.2223L28.7778 24.8889C26.5555 22.4445 23.4444 21 20.1111 21.1111C16.7778 21 13.5555 22.4445 11.3333 24.8889L11.1111 25.2223V33.6667C11.1111 34.6667 11.8889 35.5556 13 35.5556H27.2222C28.2222 35.5556 29.1111 34.6667 29.1111 33.6667V25.2223H29ZM26.7778 33.3334H13.3333V26C15.1111 24.2223 17.5555 23.3334 20.1111 23.3334C22.5555 23.2223 25 24.2223 26.7778 26V33.3334Z" fill="#552677"/>
</g>
<defs>
<clipPath id="clip0_117_1556">
<rect width="40" height="40" fill="white"/>
</clipPath>
</defs>
</svg>
