<svg width="40" height="40" viewBox="0 0 40 40" fill="none" xmlns="http://www.w3.org/2000/svg">
<path d="M16.305 5.83331C17.4597 5.28521 18.7218 5.00085 20 5.00085C21.2781 5.00085 22.5403 5.28521 23.695 5.83331L34.8466 11.0616C37.2733 12.1983 37.2733 16.135 34.8466 17.2716L23.6966 22.5C22.5417 23.0483 21.2793 23.3328 20.0008 23.3328C18.7223 23.3328 17.4599 23.0483 16.305 22.5L5.15331 17.2716C2.72665 16.135 2.72665 12.1983 5.15331 11.0616L9.99998 8.78831M3.33331 14.1666V23.3333M20 35C17.0066 35 13.09 33.1316 10.6416 31.7766C9.17331 30.9616 8.33331 29.3883 8.33331 27.71V19.1666M31.6666 19.1666V27.7083C31.6666 29.3883 30.8283 30.9616 29.3583 31.775C28.3426 32.3394 27.3027 32.8594 26.2416 33.3333" stroke="#552677" stroke-width="2" stroke-linecap="round"/>
</svg>
