<svg width="40" height="40" viewBox="0 0 40 40" fill="none" xmlns="http://www.w3.org/2000/svg">
<path d="M24.2029 29.7714L26.0315 37.5086H13.9686L15.7943 29.7714M9.30859 37.5086H30.6943M18.4343 23.9429C17.4057 23.8371 16.6715 22.9514 16.64 21.92C16.613 21.1383 16.593 20.3564 16.58 19.5743C15.7894 19.5592 14.9989 19.5392 14.2086 19.5143C13.1772 19.4829 12.2886 18.7429 12.18 17.72C12.0688 16.6648 12.0688 15.6009 12.18 14.5457C12.2886 13.52 13.1772 12.7829 14.2086 12.7514C15.0048 12.7248 15.7953 12.7048 16.58 12.6914C16.5953 11.9143 16.6143 11.1314 16.6372 10.3429C16.6715 9.31428 17.4086 8.42571 18.4343 8.31714C19.4885 8.20614 20.5515 8.20614 21.6057 8.31714C22.6343 8.42571 23.3715 9.31143 23.4029 10.3429C23.4257 11.1314 23.4448 11.9143 23.46 12.6914C24.2315 12.7067 25.0076 12.7257 25.7886 12.7486C26.8172 12.7829 27.7057 13.52 27.8143 14.5457C27.9286 15.6143 27.9286 16.6514 27.8143 17.7171C27.7057 18.7457 26.82 19.4829 25.7886 19.5143C25.0076 19.5371 24.2324 19.5562 23.4629 19.5714C23.4477 20.3544 23.4277 21.1373 23.4029 21.92C23.3715 22.9486 22.6315 23.8371 21.6086 23.9457C20.5534 24.0569 19.4895 24.0541 18.4343 23.9429Z" stroke="#552677" stroke-width="2" stroke-linecap="round" stroke-linejoin="round"/>
<path d="M3.18288 26.6C3.39431 27.8686 4.38288 28.8857 5.65431 29.0343C10.2057 29.5771 15.0543 29.7714 20 29.7714C24.9572 29.7714 29.7229 29.5771 34.3372 29.0314C35.6143 28.88 36.6057 27.8629 36.8143 26.5943C37.2857 23.7229 37.8572 20.9171 37.8572 16.1314C37.8572 11.1857 37.6086 8.28572 36.9543 5.34572C36.8296 4.80074 36.538 4.30825 36.1201 3.93693C35.7021 3.5656 35.1787 3.33396 34.6229 3.27429C29.768 2.72943 24.8854 2.46803 20 2.49143C14.94 2.49143 9.98288 2.66858 5.34288 3.25715C4.79557 3.32312 4.28181 3.55592 3.87136 3.92394C3.46091 4.29197 3.17366 4.77738 3.0486 5.31429C2.36574 8.29143 2.14288 10.9514 2.14288 16.1314C2.14288 21.0943 2.71431 23.7857 3.18288 26.6Z" stroke="#552677" stroke-width="2" stroke-linecap="round" stroke-linejoin="round"/>
</svg>
